
<svg fill="#000000" height="800px" width="800px" version="1.1" id="Capa_1" xmlns="http://www.w3.org/2000/svg" xmlns:xlink="http://www.w3.org/1999/xlink" 
	 viewBox="0 0 204 204" xml:space="preserve">
<path d="M139.185,157.339h25.175l-27.222,29.022v-26.974C137.137,158.257,138.056,157.339,139.185,157.339z M127.137,204H29.482
	c-2.761,0-5-2.239-5-5V5c0-2.761,2.239-5,5-5h145.036c2.761,0,5,2.239,5,5v142.339h-40.333c-6.643,0-12.047,5.405-12.047,12.048V204
	z M48.25,29c0,2.761,2.239,5,5,5h87.5c2.761,0,5-2.239,5-5s-2.239-5-5-5h-87.5C50.489,24,48.25,26.239,48.25,29z M48.25,59.5
	c0,2.761,2.239,5,5,5h87.5c2.761,0,5-2.239,5-5s-2.239-5-5-5h-87.5C50.489,54.5,48.25,56.739,48.25,59.5z M48.25,90
	c0,2.761,2.239,5,5,5h71.907c2.761,0,5-2.239,5-5s-2.239-5-5-5H53.25C50.489,85,48.25,87.239,48.25,90z M53.25,125.5h99.625
	c2.761,0,5-2.239,5-5s-2.239-5-5-5H53.25c-2.761,0-5,2.239-5,5S50.489,125.5,53.25,125.5z"/>
</svg>